<svg width="15" height="15" viewBox="0 0 15 15" fill="none" xmlns="http://www.w3.org/2000/svg">
<path d="M14.9 13.1775L14.73 13.0275C14.2478 12.5977 13.8257 12.1049 13.475 11.5625C13.0917 10.8139 12.8622 9.99618 12.8 9.1575V6.6875C12.8033 5.37031 12.3255 4.09724 11.4564 3.10749C10.5872 2.11774 9.38658 1.47943 8.08 1.3125V0.6675C8.08 0.490468 8.00967 0.320687 7.88449 0.195506C7.75931 0.0703257 7.58953 0 7.4125 0C7.23547 0 7.06569 0.0703257 6.94051 0.195506C6.81533 0.320687 6.745 0.490468 6.745 0.6675V1.3225C5.45013 1.50146 4.26399 2.14363 3.40626 3.13005C2.54854 4.11648 2.07737 5.38032 2.08 6.6875V9.1575C2.01778 9.99618 1.78827 10.8139 1.405 11.5625C1.06044 12.1037 0.645097 12.5964 0.17 13.0275L0 13.1775V14.5875H14.9V13.1775Z" fill="black"/>
</svg>
